ffmpeg version 6.1.1-3ubuntu5 Copyright (c) 2000-2023 the FFmpeg developers
  built with gcc 13 (Ubuntu 13.2.0-23ubuntu3)
  configuration: --prefix=/usr --extra-version=3ubuntu5 --toolchain=hardened --libdir=/usr/lib/x86_64-linux-gnu --incdir=/usr/include/x86_64-linux-gnu --arch=amd64 --enable-gpl --disable-stripping --disable-omx --enable-gnutls --enable-libaom --enable-libass --enable-libbs2b --enable-libcaca --enable-libcdio --enable-libcodec2 --enable-libdav1d --enable-libflite --enable-libfontconfig --enable-libfreetype --enable-libfribidi --enable-libglslang --enable-libgme --enable-libgsm --enable-libharfbuzz --enable-libmp3lame --enable-libmysofa --enable-libopenjpeg --enable-libopenmpt --enable-libopus --enable-librubberband --enable-libshine --enable-libsnappy --enable-libsoxr --enable-libspeex --enable-libtheora --enable-libtwolame --enable-libvidstab --enable-libvorbis --enable-libvpx --enable-libwebp --enable-libx265 --enable-libxml2 --enable-libxvid --enable-libzimg --enable-openal --enable-opencl --enable-opengl --disable-sndio --enable-libvpl --disable-libmfx --enable-libdc1394 --enable-libdrm --enable-libiec61883 --enable-chromaprint --enable-frei0r --enable-ladspa --enable-libbluray --enable-libjack --enable-libpulse --enable-librabbitmq --enable-librist --enable-libsrt --enable-libssh --enable-libsvtav1 --enable-libx264 --enable-libzmq --enable-libzvbi --enable-lv2 --enable-sdl2 --enable-libplacebo --enable-librav1e --enable-pocketsphinx --enable-librsvg --enable-libjxl --enable-shared
  libavutil      58. 29.100 / 58. 29.100
  libavcodec     60. 31.102 / 60. 31.102
  libavformat    60. 16.100 / 60. 16.100
  libavdevice    60.  3.100 / 60.  3.100
  libavfilter     9. 12.100 /  9. 12.100
  libswscale      7.  5.100 /  7.  5.100
  libswresample   4. 12.100 /  4. 12.100
  libpostproc    57.  3.100 / 57.  3.100
Routing option strict to both codec and muxer layer
[Parsed_scale_0 @ 0x5f06523a61c0] w:1280 h:720 flags:'' interl:0
[Parsed_scale_2 @ 0x5f06523b3880] w:1280 h:720 flags:'' interl:0
-vsync is deprecated. Use -fps_mode
Passing a number to -vsync is deprecated, use a string argument as described in the manual.
[h264 @ 0x5f06523bca00] Reinit context to 816x464, pix_fmt: yuv420p
Input #0, mov,mp4,m4a,3gp,3g2,mj2, from '/var/www/html/project/media/video/original/WhatsApp_Video_2026-03-04_at_00.23.05.mp4':
  Metadata:
    major_brand     : mp42
    minor_version   : 0
    compatible_brands: mp42isom
  Duration: 00:00:14.83, start: 0.000000, bitrate: 1209 kb/s
  Stream #0:0[0x1](und): Video: h264 (Baseline), 1 reference frame (avc1 / 0x31637661), yuv420p(tv, bt709, progressive, left), 816x464, 1140 kb/s, 29.94 fps, 30 tbr, 600 tbn (default)
    Metadata:
      vendor_id       : [0][0][0][0]
  Stream #0:1[0x2](und): Audio: aac (LC) (mp4a / 0x6134706D), 44100 Hz, stereo, fltp, 65 kb/s (default)
    Metadata:
      vendor_id       : [0][0][0][0]
Input #1, png_pipe, from '/var/www/html/project/static/images/templates/logo.png':
  Duration: N/A, bitrate: N/A
  Stream #1:0: Video: png, 1 reference frame, rgba(pc, gbr/unknown/unknown), 1920x1080 [SAR 2835:2835 DAR 16:9], 25 fps, 25 tbr, 25 tbn
[out#0/mp4 @ 0x5f065323c2c0] Creating output stream from unlabeled output of complex filtergraph 0. This overrides automatic video mapping.
[vost#0:0/libx264 @ 0x5f065323d040] Created video stream from complex filtergraph 0:[overlay:default]
[vost#0:0/libx264 @ 0x5f065323d040] 
[out#0/mp4 @ 0x5f065323c2c0] No explicit maps, mapping streams automatically...
[aost#0:1/aac @ 0x5f065323ea40] Created audio stream from input stream 0:1
Stream mapping:
  Stream #0:0 (h264) -> scale:default (graph 0)
  Stream #1:0 (png) -> scale:default (graph 0)
  overlay:default (graph 0) -> Stream #0:0 (libx264)
  Stream #0:1 -> #0:1 (aac (native) -> aac (native))
Press [q] to stop, [?] for help
[h264 @ 0x5f065240b0c0] Reinit context to 816x464, pix_fmt: yuv420p
[graph_1_in_0_1 @ 0x5f06523c0c80] tb:1/44100 samplefmt:fltp samplerate:44100 chlayout:stereo
[in#1/png_pipe @ 0x5f0652573240] EOF while reading input
[in#1/png_pipe @ 0x5f0652573240] Terminating demuxer thread
[vist#1:0/png @ 0x5f06523a9f00] Decoder thread received EOF packet
[vist#1:0/png @ 0x5f06523a9f00] Decoder returned EOF, finishing
[vist#1:0/png @ 0x5f06523a9f00] Terminating decoder thread
[Parsed_scale_0 @ 0x5f065344cb40] w:1280 h:720 flags:'' interl:0
[Parsed_scale_2 @ 0x5f0653459d00] w:1280 h:720 flags:'' interl:0
[graph 0 input from stream 0:0 @ 0x5f0653449580] w:816 h:464 pixfmt:yuv420p tb:1/600 fr:30/1 sar:0/1
[graph 0 input from stream 1:0 @ 0x5f0653449900] w:1920 h:1080 pixfmt:rgba tb:1/25 fr:25/1 sar:2835/2835
[Parsed_scale_0 @ 0x5f065344cb40] w:816 h:464 fmt:yuv420p sar:0/1 -> w:1280 h:720 fmt:yuv420p sar:0/1 flags:0x00000004
[Parsed_setsar_1 @ 0x5f0653459c00] w:1280 h:720 sar:0/1 dar:16/9 -> sar:1/1 dar:16/9
[Parsed_scale_2 @ 0x5f0653459d00] w:1920 h:1080 fmt:rgba sar:2835/2835 -> w:1280 h:720 fmt:yuva420p sar:1/1 flags:0x00000004
[Parsed_setsar_3 @ 0x5f0653466e00] w:1280 h:720 sar:1/1 dar:16/9 -> sar:1/1 dar:16/9
[Parsed_overlay_4 @ 0x5f06534670c0] main w:1280 h:720 fmt:yuv420p overlay w:1280 h:720 fmt:yuva420p
[Parsed_overlay_4 @ 0x5f06534670c0] [framesync @ 0x5f06523c1928] Selected 1/600 time base
[Parsed_overlay_4 @ 0x5f06534670c0] [framesync @ 0x5f06523c1928] Sync level 2
[Parsed_scale_0 @ 0x5f065344cb40] w:816 h:464 fmt:yuv420p sar:0/1 -> w:1280 h:720 fmt:yuv420p sar:0/1 flags:0x00000004
    Last message repeated 2 times
[Parsed_scale_2 @ 0x5f0653459d00] w:1920 h:1080 fmt:rgba sar:2835/2835 -> w:1280 h:720 fmt:yuva420p sar:1/1 flags:0x00000004
    Last message repeated 2 times
[libx264 @ 0x5f065323d400] using SAR=1/1
[libx264 @ 0x5f065323d400] using cpu capabilities: MMX2 SSE2Fast SSSE3 SSE4.2 AVX FMA3 BMI2 AVX2
[libx264 @ 0x5f065323d400] profile High, level 3.1, 4:2:0, 8-bit
[libx264 @ 0x5f065323d400] 264 - core 164 r3108 31e19f9 - H.264/MPEG-4 AVC codec - Copyleft 2003-2023 - http://www.videolan.org/x264.html - options: cabac=1 ref=1 deblock=1:0:0 analyse=0x3:0x113 me=hex subme=2 psy=1 psy_rd=1.00:0.00 mixed_ref=0 me_range=16 chroma_me=1 trellis=0 8x8dct=1 cqm=0 deadzone=21,11 fast_pskip=1 chroma_qp_offset=0 threads=22 lookahead_threads=5 sliced_threads=0 nr=0 decimate=1 interlaced=0 bluray_compat=0 constrained_intra=0 bframes=3 b_pyramid=2 b_adapt=1 b_bias=0 direct=1 weightb=1 open_gop=0 weightp=1 keyint=250 keyint_min=25 scenecut=40 intra_refresh=0 rc_lookahead=10 rc=crf mbtree=1 crf=18.0 qcomp=0.60 qpmin=0 qpmax=69 qpstep=4 ip_ratio=1.40 aq=1:1.00
Output #0, mp4, to '/var/www/html/project/media/video/watermarks/WhatsApp_Video_2026-03-04_at_00.23.05.mp4':
  Metadata:
    major_brand     : mp42
    minor_version   : 0
    compatible_brands: mp42isom
    encoder         : Lavf60.16.100
  Stream #0:0: Video: h264, 1 reference frame (avc1 / 0x31637661), yuv420p(tv, bt709, progressive, left), 1280x720 (0x0) [SAR 1:1 DAR 16:9], q=2-31, 30 fps, 15360 tbn
    Metadata:
      encoder         : Lavc60.31.102 libx264
    Side data:
      cpb: bitrate max/min/avg: 0/0/0 buffer size: 0 vbv_delay: N/A
  Stream #0:1(und): Audio: aac (LC) (mp4a / 0x6134706D), 44100 Hz, stereo, fltp, delay 1024, 128 kb/s (default)
    Metadata:
      vendor_id       : [0][0][0][0]
      encoder         : Lavc60.31.102 aac
[in#0/mov,mp4,m4a,3gp,3g2,mj2 @ 0x5f06523bbd80] EOF while reading input
[in#0/mov,mp4,m4a,3gp,3g2,mj2 @ 0x5f06523bbd80] Terminating demuxer thread
[vist#0:0/h264 @ 0x5f06525734c0] Decoder thread received EOF packet
[vist#0:0/h264 @ 0x5f06525734c0] Decoder returned EOF, finishing
[vist#0:0/h264 @ 0x5f06525734c0] Terminating decoder thread
[Parsed_overlay_4 @ 0x5f06534670c0] [framesync @ 0x5f06523c1928] Sync level 0
[aist#0:1/aac @ 0x5f065240a380] Decoder thread received EOF packet
[aist#0:1/aac @ 0x5f065240a380] Decoder returned EOF, finishing
[aist#0:1/aac @ 0x5f065240a380] Terminating decoder thread
No more output streams to write to, finishing.
[out#0/mp4 @ 0x5f065323c2c0] All streams finished
[out#0/mp4 @ 0x5f065323c2c0] Terminating muxer thread
[AVIOContext @ 0x5f06533a2940] Statistics: 9472369 bytes written, 2 seeks, 40 writeouts
[out#0/mp4 @ 0x5f065323c2c0] Output file #0 (/var/www/html/project/media/video/watermarks/WhatsApp_Video_2026-03-04_at_00.23.05.mp4):
[out#0/mp4 @ 0x5f065323c2c0]   Output stream #0:0 (video): 444 frames encoded; 444 packets muxed (9215864 bytes); 
[out#0/mp4 @ 0x5f065323c2c0]   Output stream #0:1 (audio): 636 frames encoded (651264 samples); 637 packets muxed (239203 bytes); 
[out#0/mp4 @ 0x5f065323c2c0]   Total: 1081 packets (9455067 bytes) muxed
[out#0/mp4 @ 0x5f065323c2c0] video:9000kB audio:234kB subtitle:0kB other streams:0kB global headers:0kB muxing overhead: 0.182950%
frame=  444 fps=157 q=-1.0 Lsize=    9250kB time=00:00:14.74 bitrate=5139.4kbits/s speed=5.22x    
[AVIOContext @ 0x5f06523b36c0] Statistics: 1196 bytes written, 0 seeks, 6 writeouts
[libx264 @ 0x5f065323d400] frame I:2     Avg QP:16.46  size: 82286
[libx264 @ 0x5f065323d400] frame P:135   Avg QP:19.36  size: 36216
[libx264 @ 0x5f065323d400] frame B:307   Avg QP:21.36  size: 13555
[libx264 @ 0x5f065323d400] consecutive B-frames:  3.6%  7.2% 16.2% 73.0%
[libx264 @ 0x5f065323d400] mb I  I16..4: 11.5% 33.8% 54.7%
[libx264 @ 0x5f065323d400] mb P  I16..4: 11.1% 31.5% 10.8%  P16..4: 18.7% 14.7%  9.6%  0.0%  0.0%    skip: 3.5%
[libx264 @ 0x5f065323d400] mb B  I16..4:  3.1%  5.8%  0.5%  B16..8: 32.8% 17.3%  2.3%  direct:15.2%  skip:23.1%  L0:45.0% L1:43.0% BI:12.0%
[libx264 @ 0x5f065323d400] 8x8 transform intra:59.2% inter:30.3%
[libx264 @ 0x5f065323d400] coded y,uvDC,uvAC intra: 56.2% 71.9% 26.6% inter: 18.2% 38.0% 1.4%
[libx264 @ 0x5f065323d400] i16 v,h,dc,p: 51% 27%  9% 13%
[libx264 @ 0x5f065323d400] i8 v,h,dc,ddl,ddr,vr,hd,vl,hu: 26% 29% 13%  4%  6%  5%  7%  4%  5%
[libx264 @ 0x5f065323d400] i4 v,h,dc,ddl,ddr,vr,hd,vl,hu: 22% 25% 11%  6%  8%  7%  9%  6%  6%
[libx264 @ 0x5f065323d400] i8c dc,h,v,p: 45% 23% 22% 11%
[libx264 @ 0x5f065323d400] Weighted P-Frames: Y:1.5% UV:0.7%
[libx264 @ 0x5f065323d400] kb/s:4969.98
[aac @ 0x5f065323ee00] Qavg: 828.396
[in#0/mov,mp4,m4a,3gp,3g2,mj2 @ 0x5f06523bbd80] Input file #0 (/var/www/html/project/media/video/original/WhatsApp_Video_2026-03-04_at_00.23.05.mp4):
[in#0/mov,mp4,m4a,3gp,3g2,mj2 @ 0x5f06523bbd80]   Input stream #0:0 (video): 444 packets read (2113863 bytes); 444 frames decoded; 0 decode errors; 
[in#0/mov,mp4,m4a,3gp,3g2,mj2 @ 0x5f06523bbd80]   Input stream #0:1 (audio): 636 packets read (121681 bytes); 636 frames decoded; 0 decode errors (651264 samples); 
[in#0/mov,mp4,m4a,3gp,3g2,mj2 @ 0x5f06523bbd80]   Total: 1080 packets (2235544 bytes) demuxed
[AVIOContext @ 0x5f06523bc200] Statistics: 2241571 bytes read, 0 seeks
[in#1/png_pipe @ 0x5f0652573240] Input file #1 (/var/www/html/project/static/images/templates/logo.png):
[in#1/png_pipe @ 0x5f0652573240]   Input stream #1:0 (video): 1 packets read (111578 bytes); 1 frames decoded; 0 decode errors; 
[in#1/png_pipe @ 0x5f0652573240]   Total: 1 packets (111578 bytes) demuxed
[AVIOContext @ 0x5f06523b1a80] Statistics: 111578 bytes read, 0 seeks
